<svg xmlns="http://www.w3.org/2000/svg" width="1200" height="680" viewBox="0 0 1200 680">
<rect width="100%" height="100%" fill="white"/>
<text x="600" y="35" text-anchor="middle" font-family="Arial" font-size="22" font-weight="700">Box Plot ph?n ph?i Gap (%) c?a c?c thu?t to?n Heuristic so v?i MILP</text>
<text x="600" y="62" text-anchor="middle" font-family="Arial" font-size="13" fill="#555">H?p: Q1?Q3, ???ng ??: median, ch?m xanh: mean</text>
<line x1="90" y1="555.0" x2="1160" y2="555.0" stroke="#ddd" stroke-dasharray="4 4"/>
<text x="80" y="559.0" text-anchor="end" font-family="Arial" font-size="12">0</text>
<line x1="90" y1="515.4" x2="1160" y2="515.4" stroke="#ddd" stroke-dasharray="4 4"/>
<text x="80" y="519.4" text-anchor="end" font-family="Arial" font-size="12">5</text>
<line x1="90" y1="475.8" x2="1160" y2="475.8" stroke="#ddd" stroke-dasharray="4 4"/>
<text x="80" y="479.8" text-anchor="end" font-family="Arial" font-size="12">10</text>
<line x1="90" y1="436.2" x2="1160" y2="436.2" stroke="#ddd" stroke-dasharray="4 4"/>
<text x="80" y="440.2" text-anchor="end" font-family="Arial" font-size="12">15</text>
<line x1="90" y1="396.7" x2="1160" y2="396.7" stroke="#ddd" stroke-dasharray="4 4"/>
<text x="80" y="400.7" text-anchor="end" font-family="Arial" font-size="12">20</text>
<line x1="90" y1="357.1" x2="1160" y2="357.1" stroke="#ddd" stroke-dasharray="4 4"/>
<text x="80" y="361.1" text-anchor="end" font-family="Arial" font-size="12">25</text>
<line x1="90" y1="317.5" x2="1160" y2="317.5" stroke="#ddd" stroke-dasharray="4 4"/>
<text x="80" y="321.5" text-anchor="end" font-family="Arial" font-size="12">30</text>
<line x1="90" y1="277.9" x2="1160" y2="277.9" stroke="#ddd" stroke-dasharray="4 4"/>
<text x="80" y="281.9" text-anchor="end" font-family="Arial" font-size="12">35</text>
<line x1="90" y1="238.3" x2="1160" y2="238.3" stroke="#ddd" stroke-dasharray="4 4"/>
<text x="80" y="242.3" text-anchor="end" font-family="Arial" font-size="12">40</text>
<line x1="90" y1="198.8" x2="1160" y2="198.8" stroke="#ddd" stroke-dasharray="4 4"/>
<text x="80" y="202.8" text-anchor="end" font-family="Arial" font-size="12">45</text>
<line x1="90" y1="159.2" x2="1160" y2="159.2" stroke="#ddd" stroke-dasharray="4 4"/>
<text x="80" y="163.2" text-anchor="end" font-family="Arial" font-size="12">50</text>
<line x1="90" y1="119.6" x2="1160" y2="119.6" stroke="#ddd" stroke-dasharray="4 4"/>
<text x="80" y="123.6" text-anchor="end" font-family="Arial" font-size="12">55</text>
<line x1="90" y1="80.0" x2="1160" y2="80.0" stroke="#ddd" stroke-dasharray="4 4"/>
<text x="80" y="84.0" text-anchor="end" font-family="Arial" font-size="12">60</text>
<line x1="90" y1="80" x2="90" y2="555" stroke="#222"/>
<line x1="90" y1="555" x2="1160" y2="555" stroke="#222"/>
<text transform="translate(25 317.5) rotate(-90)" text-anchor="middle" font-family="Arial" font-size="15">Gap so v?i MILP (%)</text>
<text x="625.0" y="655" text-anchor="middle" font-family="Arial" font-size="15">Thu?t to?n Heuristic</text>
<line x1="143.5" y1="146.1" x2="143.5" y2="314.6" stroke="#08519c" stroke-width="2"/>
<line x1="143.5" y1="427.0" x2="143.5" y2="471.8" stroke="#08519c" stroke-width="2"/>
<line x1="124.8" y1="146.1" x2="162.2" y2="146.1" stroke="#08519c" stroke-width="2"/>
<line x1="124.8" y1="471.8" x2="162.2" y2="471.8" stroke="#08519c" stroke-width="2"/>
<rect x="115.5" y="314.6" width="56" height="112.3" fill="#9ecae1" stroke="#08519c" stroke-width="2"/>
<line x1="115.5" y1="386.1" x2="171.5" y2="386.1" stroke="#de2d26" stroke-width="3"/>
<circle cx="143.5" cy="357.0" r="5" fill="#31a354" stroke="#006d2c"/>
<circle cx="143.5" cy="106.3" r="3" fill="white" stroke="#444"/>
<circle cx="143.5" cy="101.3" r="3" fill="white" stroke="#444"/>
<text transform="translate(143.5 577) rotate(35)" text-anchor="start" font-family="Arial" font-size="13">Greedy1</text>
<line x1="250.5" y1="392.8" x2="250.5" y2="474.9" stroke="#08519c" stroke-width="2"/>
<line x1="250.5" y1="535.0" x2="250.5" y2="552.0" stroke="#08519c" stroke-width="2"/>
<line x1="231.8" y1="392.8" x2="269.2" y2="392.8" stroke="#08519c" stroke-width="2"/>
<line x1="231.8" y1="552.0" x2="269.2" y2="552.0" stroke="#08519c" stroke-width="2"/>
<rect x="222.5" y="474.9" width="56" height="60.1" fill="#9ecae1" stroke="#08519c" stroke-width="2"/>
<line x1="222.5" y1="521.3" x2="278.5" y2="521.3" stroke="#de2d26" stroke-width="3"/>
<circle cx="250.5" cy="504.8" r="5" fill="#31a354" stroke="#006d2c"/>
<text transform="translate(250.5 577) rotate(35)" text-anchor="start" font-family="Arial" font-size="13">Greedy2</text>
<line x1="357.5" y1="419.4" x2="357.5" y2="489.7" stroke="#08519c" stroke-width="2"/>
<line x1="357.5" y1="536.5" x2="357.5" y2="552.0" stroke="#08519c" stroke-width="2"/>
<line x1="338.8" y1="419.4" x2="376.2" y2="419.4" stroke="#08519c" stroke-width="2"/>
<line x1="338.8" y1="552.0" x2="376.2" y2="552.0" stroke="#08519c" stroke-width="2"/>
<rect x="329.5" y="489.7" width="56" height="46.8" fill="#9ecae1" stroke="#08519c" stroke-width="2"/>
<line x1="329.5" y1="530.3" x2="385.5" y2="530.3" stroke="#de2d26" stroke-width="3"/>
<circle cx="357.5" cy="511.4" r="5" fill="#31a354" stroke="#006d2c"/>
<circle cx="357.5" cy="392.8" r="3" fill="white" stroke="#444"/>
<text transform="translate(357.5 577) rotate(35)" text-anchor="start" font-family="Arial" font-size="13">Move1</text>
<line x1="464.5" y1="396.4" x2="464.5" y2="479.6" stroke="#08519c" stroke-width="2"/>
<line x1="464.5" y1="535.0" x2="464.5" y2="552.0" stroke="#08519c" stroke-width="2"/>
<line x1="445.8" y1="396.4" x2="483.2" y2="396.4" stroke="#08519c" stroke-width="2"/>
<line x1="445.8" y1="552.0" x2="483.2" y2="552.0" stroke="#08519c" stroke-width="2"/>
<rect x="436.5" y="479.6" width="56" height="55.5" fill="#9ecae1" stroke="#08519c" stroke-width="2"/>
<line x1="436.5" y1="521.3" x2="492.5" y2="521.3" stroke="#de2d26" stroke-width="3"/>
<circle cx="464.5" cy="505.5" r="5" fill="#31a354" stroke="#006d2c"/>
<circle cx="464.5" cy="392.8" r="3" fill="white" stroke="#444"/>
<text transform="translate(464.5 577) rotate(35)" text-anchor="start" font-family="Arial" font-size="13">Move2</text>
<line x1="571.5" y1="486.2" x2="571.5" y2="518.0" stroke="#08519c" stroke-width="2"/>
<line x1="571.5" y1="549.6" x2="571.5" y2="555.0" stroke="#08519c" stroke-width="2"/>
<line x1="552.8" y1="486.2" x2="590.2" y2="486.2" stroke="#08519c" stroke-width="2"/>
<line x1="552.8" y1="555.0" x2="590.2" y2="555.0" stroke="#08519c" stroke-width="2"/>
<rect x="543.5" y="518.0" width="56" height="31.6" fill="#9ecae1" stroke="#08519c" stroke-width="2"/>
<line x1="543.5" y1="539.6" x2="599.5" y2="539.6" stroke="#de2d26" stroke-width="3"/>
<circle cx="571.5" cy="534.0" r="5" fill="#31a354" stroke="#006d2c"/>
<text transform="translate(571.5 577) rotate(35)" text-anchor="start" font-family="Arial" font-size="13">Move3</text>
<line x1="678.5" y1="466.6" x2="678.5" y2="509.5" stroke="#08519c" stroke-width="2"/>
<line x1="678.5" y1="539.9" x2="678.5" y2="552.0" stroke="#08519c" stroke-width="2"/>
<line x1="659.8" y1="466.6" x2="697.2" y2="466.6" stroke="#08519c" stroke-width="2"/>
<line x1="659.8" y1="552.0" x2="697.2" y2="552.0" stroke="#08519c" stroke-width="2"/>
<rect x="650.5" y="509.5" width="56" height="30.4" fill="#9ecae1" stroke="#08519c" stroke-width="2"/>
<line x1="650.5" y1="526.6" x2="706.5" y2="526.6" stroke="#de2d26" stroke-width="3"/>
<circle cx="678.5" cy="520.7" r="5" fill="#31a354" stroke="#006d2c"/>
<text transform="translate(678.5 577) rotate(35)" text-anchor="start" font-family="Arial" font-size="13">Move4</text>
<line x1="785.5" y1="438.5" x2="785.5" y2="497.7" stroke="#08519c" stroke-width="2"/>
<line x1="785.5" y1="537.2" x2="785.5" y2="552.0" stroke="#08519c" stroke-width="2"/>
<line x1="766.8" y1="438.5" x2="804.2" y2="438.5" stroke="#08519c" stroke-width="2"/>
<line x1="766.8" y1="552.0" x2="804.2" y2="552.0" stroke="#08519c" stroke-width="2"/>
<rect x="757.5" y="497.7" width="56" height="39.5" fill="#9ecae1" stroke="#08519c" stroke-width="2"/>
<line x1="757.5" y1="530.3" x2="813.5" y2="530.3" stroke="#de2d26" stroke-width="3"/>
<circle cx="785.5" cy="516.4" r="5" fill="#31a354" stroke="#006d2c"/>
<circle cx="785.5" cy="433.9" r="3" fill="white" stroke="#444"/>
<text transform="translate(785.5 577) rotate(35)" text-anchor="start" font-family="Arial" font-size="13">Move5</text>
<line x1="892.5" y1="531.5" x2="892.5" y2="542.6" stroke="#08519c" stroke-width="2"/>
<line x1="892.5" y1="553.7" x2="892.5" y2="555.0" stroke="#08519c" stroke-width="2"/>
<line x1="873.8" y1="531.5" x2="911.2" y2="531.5" stroke="#08519c" stroke-width="2"/>
<line x1="873.8" y1="555.0" x2="911.2" y2="555.0" stroke="#08519c" stroke-width="2"/>
<rect x="864.5" y="542.6" width="56" height="11.0" fill="#9ecae1" stroke="#08519c" stroke-width="2"/>
<line x1="864.5" y1="550.1" x2="920.5" y2="550.1" stroke="#de2d26" stroke-width="3"/>
<circle cx="892.5" cy="548.0" r="5" fill="#31a354" stroke="#006d2c"/>
<text transform="translate(892.5 577) rotate(35)" text-anchor="start" font-family="Arial" font-size="13">VND3</text>
<line x1="999.5" y1="534.9" x2="999.5" y2="546.9" stroke="#08519c" stroke-width="2"/>
<line x1="999.5" y1="554.8" x2="999.5" y2="555.0" stroke="#08519c" stroke-width="2"/>
<line x1="980.8" y1="534.9" x2="1018.2" y2="534.9" stroke="#08519c" stroke-width="2"/>
<line x1="980.8" y1="555.0" x2="1018.2" y2="555.0" stroke="#08519c" stroke-width="2"/>
<rect x="971.5" y="546.9" width="56" height="7.9" fill="#9ecae1" stroke="#08519c" stroke-width="2"/>
<line x1="971.5" y1="552.5" x2="1027.5" y2="552.5" stroke="#de2d26" stroke-width="3"/>
<circle cx="999.5" cy="549.6" r="5" fill="#31a354" stroke="#006d2c"/>
<circle cx="999.5" cy="531.5" r="3" fill="white" stroke="#444"/>
<text transform="translate(999.5 577) rotate(35)" text-anchor="start" font-family="Arial" font-size="13">VND4</text>
<line x1="1106.5" y1="540.4" x2="1106.5" y2="548.4" stroke="#08519c" stroke-width="2"/>
<line x1="1106.5" y1="555.0" x2="1106.5" y2="555.0" stroke="#08519c" stroke-width="2"/>
<line x1="1087.8" y1="540.4" x2="1125.2" y2="540.4" stroke="#08519c" stroke-width="2"/>
<line x1="1087.8" y1="555.0" x2="1125.2" y2="555.0" stroke="#08519c" stroke-width="2"/>
<rect x="1078.5" y="548.4" width="56" height="6.6" fill="#9ecae1" stroke="#08519c" stroke-width="2"/>
<line x1="1078.5" y1="552.9" x2="1134.5" y2="552.9" stroke="#de2d26" stroke-width="3"/>
<circle cx="1106.5" cy="550.8" r="5" fill="#31a354" stroke="#006d2c"/>
<text transform="translate(1106.5 577) rotate(35)" text-anchor="start" font-family="Arial" font-size="13">VND</text>
</svg>