<svg xmlns="http://www.w3.org/2000/svg" width="1200" height="680" viewBox="0 0 1200 680">
<rect width="100%" height="100%" fill="white"/>
<text x="600" y="35" text-anchor="middle" font-family="Arial" font-size="22" font-weight="700">Bi?u ?? so s?nh th?i gian th?c thi trung b?nh</text>
<text x="600" y="62" text-anchor="middle" font-family="Arial" font-size="14" fill="#555">Tr?c tung s? d?ng thang ?o Logarit c? s? 10</text>
<line x1="95" y1="550.0" x2="1160" y2="550.0" stroke="#ddd" stroke-dasharray="4 4"/>
<text x="85" y="554.0" text-anchor="end" font-family="Arial" font-size="12">10^-4</text>
<line x1="95" y1="482.9" x2="1160" y2="482.9" stroke="#ddd" stroke-dasharray="4 4"/>
<text x="85" y="486.9" text-anchor="end" font-family="Arial" font-size="12">10^-3.5</text>
<line x1="95" y1="415.7" x2="1160" y2="415.7" stroke="#ddd" stroke-dasharray="4 4"/>
<text x="85" y="419.7" text-anchor="end" font-family="Arial" font-size="12">10^-3</text>
<line x1="95" y1="348.6" x2="1160" y2="348.6" stroke="#ddd" stroke-dasharray="4 4"/>
<text x="85" y="352.6" text-anchor="end" font-family="Arial" font-size="12">10^-2.5</text>
<line x1="95" y1="281.4" x2="1160" y2="281.4" stroke="#ddd" stroke-dasharray="4 4"/>
<text x="85" y="285.4" text-anchor="end" font-family="Arial" font-size="12">10^-2</text>
<line x1="95" y1="214.3" x2="1160" y2="214.3" stroke="#ddd" stroke-dasharray="4 4"/>
<text x="85" y="218.3" text-anchor="end" font-family="Arial" font-size="12">10^-1.5</text>
<line x1="95" y1="147.1" x2="1160" y2="147.1" stroke="#ddd" stroke-dasharray="4 4"/>
<text x="85" y="151.1" text-anchor="end" font-family="Arial" font-size="12">10^-1</text>
<line x1="95" y1="80.0" x2="1160" y2="80.0" stroke="#ddd" stroke-dasharray="4 4"/>
<text x="85" y="84.0" text-anchor="end" font-family="Arial" font-size="12">10^-0.5</text>
<line x1="95" y1="80" x2="95" y2="550" stroke="#222"/>
<line x1="95" y1="550" x2="1160" y2="550" stroke="#222"/>
<text transform="translate(28 315.0) rotate(-90)" text-anchor="middle" font-family="Arial" font-size="15">Th?i gian trung b?nh, log10(gi?y)</text>
<text x="627.5" y="655" text-anchor="middle" font-family="Arial" font-size="15">Ph??ng ph?p</text>
<rect x="115.4" y="100.6" width="56" height="449.4" fill="#756bb1" stroke="#333" stroke-width="1"/>
<text x="143.4" y="93.6" text-anchor="middle" font-family="Arial" font-size="11">0.2221s</text>
<text transform="translate(143.4 572) rotate(35)" text-anchor="start" font-family="Arial" font-size="13">MILP</text>
<rect x="212.2" y="340.7" width="56" height="209.3" fill="#9ecae1" stroke="#333" stroke-width="1"/>
<text x="240.2" y="333.7" text-anchor="middle" font-family="Arial" font-size="11">0.0036s</text>
<text transform="translate(240.2 572) rotate(35)" text-anchor="start" font-family="Arial" font-size="13">Greedy1</text>
<rect x="309.0" y="524.8" width="56" height="25.2" fill="#6baed6" stroke="#333" stroke-width="1"/>
<text x="337.0" y="517.8" text-anchor="middle" font-family="Arial" font-size="11">0.0002s</text>
<text transform="translate(337.0 572) rotate(35)" text-anchor="start" font-family="Arial" font-size="13">Greedy2</text>
<rect x="405.9" y="461.8" width="56" height="88.2" fill="#74c476" stroke="#333" stroke-width="1"/>
<text x="433.9" y="454.8" text-anchor="middle" font-family="Arial" font-size="11">0.0005s</text>
<text transform="translate(433.9 572) rotate(35)" text-anchor="start" font-family="Arial" font-size="13">Move1</text>
<rect x="502.7" y="526.9" width="56" height="23.1" fill="#74c476" stroke="#333" stroke-width="1"/>
<text x="530.7" y="519.9" text-anchor="middle" font-family="Arial" font-size="11">0.0001s</text>
<text transform="translate(530.7 572) rotate(35)" text-anchor="start" font-family="Arial" font-size="13">Move2</text>
<rect x="599.5" y="472.0" width="56" height="78.0" fill="#74c476" stroke="#333" stroke-width="1"/>
<text x="627.5" y="465.0" text-anchor="middle" font-family="Arial" font-size="11">0.0004s</text>
<text transform="translate(627.5 572) rotate(35)" text-anchor="start" font-family="Arial" font-size="13">Move3</text>
<rect x="696.3" y="262.7" width="56" height="287.3" fill="#74c476" stroke="#333" stroke-width="1"/>
<text x="724.3" y="255.7" text-anchor="middle" font-family="Arial" font-size="11">0.0138s</text>
<text transform="translate(724.3 572) rotate(35)" text-anchor="start" font-family="Arial" font-size="13">Move4</text>
<rect x="793.1" y="396.3" width="56" height="153.7" fill="#74c476" stroke="#333" stroke-width="1"/>
<text x="821.1" y="389.3" text-anchor="middle" font-family="Arial" font-size="11">0.0014s</text>
<text transform="translate(821.1 572) rotate(35)" text-anchor="start" font-family="Arial" font-size="13">Move5</text>
<rect x="890.0" y="355.3" width="56" height="194.7" fill="#fd8d3c" stroke="#333" stroke-width="1"/>
<text x="918.0" y="348.3" text-anchor="middle" font-family="Arial" font-size="11">0.0028s</text>
<text transform="translate(918.0 572) rotate(35)" text-anchor="start" font-family="Arial" font-size="13">VND3</text>
<rect x="986.8" y="279.1" width="56" height="270.9" fill="#fdae6b" stroke="#333" stroke-width="1"/>
<text x="1014.8" y="272.1" text-anchor="middle" font-family="Arial" font-size="11">0.0104s</text>
<text transform="translate(1014.8 572) rotate(35)" text-anchor="start" font-family="Arial" font-size="13">VND4</text>
<rect x="1083.6" y="279.3" width="56" height="270.7" fill="#e6550d" stroke="#333" stroke-width="1"/>
<text x="1111.6" y="272.3" text-anchor="middle" font-family="Arial" font-size="11">0.0104s</text>
<text transform="translate(1111.6 572) rotate(35)" text-anchor="start" font-family="Arial" font-size="13">VND</text>
</svg>