<svg xmlns="http://www.w3.org/2000/svg" width="1200" height="680" viewBox="0 0 1200 680">
<rect width="100%" height="100%" fill="white"/>
<text x="600" y="35" text-anchor="middle" font-family="Arial" font-size="22" font-weight="700">Qu? tr?nh h?i t? c?a h?m m?c ti?u qua c?c v?ng l?p VND</text>
<text x="600" y="62" text-anchor="middle" font-family="Arial" font-size="14" fill="#555">Instance ti?u bi?u: cap51.txt | Initial = 1,378,150.22 | Final = 1,219,174.36</text>
<line x1="95" y1="575.0" x2="1155" y2="575.0" stroke="#ddd" stroke-dasharray="4 4"/>
<text x="85" y="579.0" text-anchor="end" font-family="Arial" font-size="12">1.20M</text>
<line x1="95" y1="451.2" x2="1155" y2="451.2" stroke="#ddd" stroke-dasharray="4 4"/>
<text x="85" y="455.2" text-anchor="end" font-family="Arial" font-size="12">1.25M</text>
<line x1="95" y1="327.5" x2="1155" y2="327.5" stroke="#ddd" stroke-dasharray="4 4"/>
<text x="85" y="331.5" text-anchor="end" font-family="Arial" font-size="12">1.30M</text>
<line x1="95" y1="203.8" x2="1155" y2="203.8" stroke="#ddd" stroke-dasharray="4 4"/>
<text x="85" y="207.8" text-anchor="end" font-family="Arial" font-size="12">1.35M</text>
<line x1="95" y1="80.0" x2="1155" y2="80.0" stroke="#ddd" stroke-dasharray="4 4"/>
<text x="85" y="84.0" text-anchor="end" font-family="Arial" font-size="12">1.40M</text>
<line x1="95.0" y1="80" x2="95.0" y2="575" stroke="#f0f0f0"/>
<line x1="126.2" y1="80" x2="126.2" y2="575" stroke="#f0f0f0"/>
<line x1="157.4" y1="80" x2="157.4" y2="575" stroke="#f0f0f0"/>
<line x1="188.5" y1="80" x2="188.5" y2="575" stroke="#f0f0f0"/>
<line x1="219.7" y1="80" x2="219.7" y2="575" stroke="#f0f0f0"/>
<line x1="250.9" y1="80" x2="250.9" y2="575" stroke="#f0f0f0"/>
<line x1="282.1" y1="80" x2="282.1" y2="575" stroke="#f0f0f0"/>
<line x1="313.2" y1="80" x2="313.2" y2="575" stroke="#f0f0f0"/>
<line x1="344.4" y1="80" x2="344.4" y2="575" stroke="#f0f0f0"/>
<line x1="375.6" y1="80" x2="375.6" y2="575" stroke="#f0f0f0"/>
<line x1="406.8" y1="80" x2="406.8" y2="575" stroke="#f0f0f0"/>
<line x1="437.9" y1="80" x2="437.9" y2="575" stroke="#f0f0f0"/>
<line x1="469.1" y1="80" x2="469.1" y2="575" stroke="#f0f0f0"/>
<line x1="500.3" y1="80" x2="500.3" y2="575" stroke="#f0f0f0"/>
<line x1="531.5" y1="80" x2="531.5" y2="575" stroke="#f0f0f0"/>
<line x1="562.6" y1="80" x2="562.6" y2="575" stroke="#f0f0f0"/>
<line x1="593.8" y1="80" x2="593.8" y2="575" stroke="#f0f0f0"/>
<line x1="625.0" y1="80" x2="625.0" y2="575" stroke="#f0f0f0"/>
<line x1="656.2" y1="80" x2="656.2" y2="575" stroke="#f0f0f0"/>
<line x1="687.4" y1="80" x2="687.4" y2="575" stroke="#f0f0f0"/>
<line x1="718.5" y1="80" x2="718.5" y2="575" stroke="#f0f0f0"/>
<line x1="749.7" y1="80" x2="749.7" y2="575" stroke="#f0f0f0"/>
<line x1="780.9" y1="80" x2="780.9" y2="575" stroke="#f0f0f0"/>
<line x1="812.1" y1="80" x2="812.1" y2="575" stroke="#f0f0f0"/>
<line x1="843.2" y1="80" x2="843.2" y2="575" stroke="#f0f0f0"/>
<line x1="874.4" y1="80" x2="874.4" y2="575" stroke="#f0f0f0"/>
<line x1="905.6" y1="80" x2="905.6" y2="575" stroke="#f0f0f0"/>
<line x1="936.8" y1="80" x2="936.8" y2="575" stroke="#f0f0f0"/>
<line x1="967.9" y1="80" x2="967.9" y2="575" stroke="#f0f0f0"/>
<line x1="999.1" y1="80" x2="999.1" y2="575" stroke="#f0f0f0"/>
<line x1="1030.3" y1="80" x2="1030.3" y2="575" stroke="#f0f0f0"/>
<line x1="1061.5" y1="80" x2="1061.5" y2="575" stroke="#f0f0f0"/>
<line x1="1092.6" y1="80" x2="1092.6" y2="575" stroke="#f0f0f0"/>
<line x1="1123.8" y1="80" x2="1123.8" y2="575" stroke="#f0f0f0"/>
<line x1="1155.0" y1="80" x2="1155.0" y2="575" stroke="#f0f0f0"/>
<line x1="95" y1="80" x2="95" y2="575" stroke="#222"/>
<line x1="95" y1="575" x2="1155" y2="575" stroke="#222"/>
<text transform="translate(28 327.5) rotate(-90)" text-anchor="middle" font-family="Arial" font-size="15">Objective</text>
<text x="625.0" y="655" text-anchor="middle" font-family="Arial" font-size="15">V?ng l?p c?i thi?n VND</text>
<polyline points="95.0,134.1 126.2,156.2 157.4,163.1 188.5,170.7 219.7,176.7 250.9,182.3 282.1,187.7 313.2,189.5 344.4,190.2 375.6,314.8 406.8,332.9 437.9,343.4 469.1,350.9 500.3,358.0 531.5,364.2 562.6,370.3 593.8,375.3 625.0,376.1 656.2,376.9 687.4,377.6 718.5,378.3 749.7,378.3 780.9,408.2 812.1,423.2 843.2,433.1 874.4,442.5 905.6,487.9 936.8,502.7 967.9,512.1 999.1,517.9 1030.3,521.6 1061.5,524.9 1092.6,527.0 1123.8,527.5 1155.0,527.5" fill="none" stroke="#08519c" stroke-width="3"/>
<circle cx="95.0" cy="134.1" r="6" fill="#756bb1" stroke="white" stroke-width="2"/>
<text x="95.0" y="597" text-anchor="middle" font-family="Arial" font-size="12">0</text>
<text x="95.0" y="122.1" text-anchor="middle" font-family="Arial" font-size="11" fill="#333">1.378M</text>
<text x="95.0" y="156.1" text-anchor="middle" font-family="Arial" font-size="10" fill="#666">Initial Greedy2</text>
<circle cx="126.2" cy="156.2" r="6" fill="#31a354" stroke="white" stroke-width="2"/>
<text x="126.2" y="597" text-anchor="middle" font-family="Arial" font-size="12">1</text>
<text x="126.2" y="144.2" text-anchor="middle" font-family="Arial" font-size="11" fill="#333">1.369M</text>
<text x="126.2" y="178.2" text-anchor="middle" font-family="Arial" font-size="10" fill="#666">Move1</text>
<circle cx="157.4" cy="163.1" r="6" fill="#31a354" stroke="white" stroke-width="2"/>
<text x="157.4" y="597" text-anchor="middle" font-family="Arial" font-size="12">2</text>
<circle cx="188.5" cy="170.7" r="6" fill="#31a354" stroke="white" stroke-width="2"/>
<text x="188.5" y="597" text-anchor="middle" font-family="Arial" font-size="12">3</text>
<text x="188.5" y="158.7" text-anchor="middle" font-family="Arial" font-size="11" fill="#333">1.363M</text>
<text x="188.5" y="192.7" text-anchor="middle" font-family="Arial" font-size="10" fill="#666">Move1</text>
<circle cx="219.7" cy="176.7" r="6" fill="#31a354" stroke="white" stroke-width="2"/>
<text x="219.7" y="597" text-anchor="middle" font-family="Arial" font-size="12">4</text>
<circle cx="250.9" cy="182.3" r="6" fill="#31a354" stroke="white" stroke-width="2"/>
<text x="250.9" y="597" text-anchor="middle" font-family="Arial" font-size="12">5</text>
<text x="250.9" y="170.3" text-anchor="middle" font-family="Arial" font-size="11" fill="#333">1.359M</text>
<text x="250.9" y="204.3" text-anchor="middle" font-family="Arial" font-size="10" fill="#666">Move1</text>
<circle cx="282.1" cy="187.7" r="6" fill="#31a354" stroke="white" stroke-width="2"/>
<text x="282.1" y="597" text-anchor="middle" font-family="Arial" font-size="12">6</text>
<circle cx="313.2" cy="189.5" r="6" fill="#31a354" stroke="white" stroke-width="2"/>
<text x="313.2" y="597" text-anchor="middle" font-family="Arial" font-size="12">7</text>
<text x="313.2" y="177.5" text-anchor="middle" font-family="Arial" font-size="11" fill="#333">1.356M</text>
<text x="313.2" y="211.5" text-anchor="middle" font-family="Arial" font-size="10" fill="#666">Move1</text>
<circle cx="344.4" cy="190.2" r="6" fill="#31a354" stroke="white" stroke-width="2"/>
<text x="344.4" y="597" text-anchor="middle" font-family="Arial" font-size="12">8</text>
<circle cx="375.6" cy="314.8" r="6" fill="#fd8d3c" stroke="white" stroke-width="2"/>
<text x="375.6" y="597" text-anchor="middle" font-family="Arial" font-size="12">9</text>
<text x="375.6" y="302.8" text-anchor="middle" font-family="Arial" font-size="11" fill="#333">1.305M</text>
<text x="375.6" y="336.8" text-anchor="middle" font-family="Arial" font-size="10" fill="#666">Move3</text>
<circle cx="406.8" cy="332.9" r="6" fill="#31a354" stroke="white" stroke-width="2"/>
<text x="406.8" y="597" text-anchor="middle" font-family="Arial" font-size="12">10</text>
<circle cx="437.9" cy="343.4" r="6" fill="#31a354" stroke="white" stroke-width="2"/>
<text x="437.9" y="597" text-anchor="middle" font-family="Arial" font-size="12">11</text>
<text x="437.9" y="331.4" text-anchor="middle" font-family="Arial" font-size="11" fill="#333">1.294M</text>
<text x="437.9" y="365.4" text-anchor="middle" font-family="Arial" font-size="10" fill="#666">Move1</text>
<circle cx="469.1" cy="350.9" r="6" fill="#31a354" stroke="white" stroke-width="2"/>
<text x="469.1" y="597" text-anchor="middle" font-family="Arial" font-size="12">12</text>
<circle cx="500.3" cy="358.0" r="6" fill="#31a354" stroke="white" stroke-width="2"/>
<text x="500.3" y="597" text-anchor="middle" font-family="Arial" font-size="12">13</text>
<text x="500.3" y="346.0" text-anchor="middle" font-family="Arial" font-size="11" fill="#333">1.288M</text>
<text x="500.3" y="380.0" text-anchor="middle" font-family="Arial" font-size="10" fill="#666">Move1</text>
<circle cx="531.5" cy="364.2" r="6" fill="#31a354" stroke="white" stroke-width="2"/>
<text x="531.5" y="597" text-anchor="middle" font-family="Arial" font-size="12">14</text>
<circle cx="562.6" cy="370.3" r="6" fill="#31a354" stroke="white" stroke-width="2"/>
<text x="562.6" y="597" text-anchor="middle" font-family="Arial" font-size="12">15</text>
<text x="562.6" y="358.3" text-anchor="middle" font-family="Arial" font-size="11" fill="#333">1.283M</text>
<text x="562.6" y="392.3" text-anchor="middle" font-family="Arial" font-size="10" fill="#666">Move1</text>
<circle cx="593.8" cy="375.3" r="6" fill="#31a354" stroke="white" stroke-width="2"/>
<text x="593.8" y="597" text-anchor="middle" font-family="Arial" font-size="12">16</text>
<circle cx="625.0" cy="376.1" r="6" fill="#31a354" stroke="white" stroke-width="2"/>
<text x="625.0" y="597" text-anchor="middle" font-family="Arial" font-size="12">17</text>
<text x="625.0" y="364.1" text-anchor="middle" font-family="Arial" font-size="11" fill="#333">1.280M</text>
<text x="625.0" y="398.1" text-anchor="middle" font-family="Arial" font-size="10" fill="#666">Move1</text>
<circle cx="656.2" cy="376.9" r="6" fill="#31a354" stroke="white" stroke-width="2"/>
<text x="656.2" y="597" text-anchor="middle" font-family="Arial" font-size="12">18</text>
<circle cx="687.4" cy="377.6" r="6" fill="#31a354" stroke="white" stroke-width="2"/>
<text x="687.4" y="597" text-anchor="middle" font-family="Arial" font-size="12">19</text>
<text x="687.4" y="365.6" text-anchor="middle" font-family="Arial" font-size="11" fill="#333">1.280M</text>
<text x="687.4" y="399.6" text-anchor="middle" font-family="Arial" font-size="10" fill="#666">Move1</text>
<circle cx="718.5" cy="378.3" r="6" fill="#31a354" stroke="white" stroke-width="2"/>
<text x="718.5" y="597" text-anchor="middle" font-family="Arial" font-size="12">20</text>
<circle cx="749.7" cy="378.3" r="6" fill="#31a354" stroke="white" stroke-width="2"/>
<text x="749.7" y="597" text-anchor="middle" font-family="Arial" font-size="12">21</text>
<text x="749.7" y="366.3" text-anchor="middle" font-family="Arial" font-size="11" fill="#333">1.279M</text>
<text x="749.7" y="400.3" text-anchor="middle" font-family="Arial" font-size="10" fill="#666">Move1</text>
<circle cx="780.9" cy="408.2" r="6" fill="#fd8d3c" stroke="white" stroke-width="2"/>
<text x="780.9" y="597" text-anchor="middle" font-family="Arial" font-size="12">22</text>
<circle cx="812.1" cy="423.2" r="6" fill="#31a354" stroke="white" stroke-width="2"/>
<text x="812.1" y="597" text-anchor="middle" font-family="Arial" font-size="12">23</text>
<text x="812.1" y="411.2" text-anchor="middle" font-family="Arial" font-size="11" fill="#333">1.261M</text>
<text x="812.1" y="445.2" text-anchor="middle" font-family="Arial" font-size="10" fill="#666">Move1</text>
<circle cx="843.2" cy="433.1" r="6" fill="#31a354" stroke="white" stroke-width="2"/>
<text x="843.2" y="597" text-anchor="middle" font-family="Arial" font-size="12">24</text>
<circle cx="874.4" cy="442.5" r="6" fill="#fd8d3c" stroke="white" stroke-width="2"/>
<text x="874.4" y="597" text-anchor="middle" font-family="Arial" font-size="12">25</text>
<text x="874.4" y="430.5" text-anchor="middle" font-family="Arial" font-size="11" fill="#333">1.254M</text>
<text x="874.4" y="464.5" text-anchor="middle" font-family="Arial" font-size="10" fill="#666">Move3</text>
<circle cx="905.6" cy="487.9" r="6" fill="#de2d26" stroke="white" stroke-width="2"/>
<text x="905.6" y="597" text-anchor="middle" font-family="Arial" font-size="12">26</text>
<circle cx="936.8" cy="502.7" r="6" fill="#31a354" stroke="white" stroke-width="2"/>
<text x="936.8" y="597" text-anchor="middle" font-family="Arial" font-size="12">27</text>
<text x="936.8" y="490.7" text-anchor="middle" font-family="Arial" font-size="11" fill="#333">1.229M</text>
<text x="936.8" y="524.7" text-anchor="middle" font-family="Arial" font-size="10" fill="#666">Move1</text>
<circle cx="967.9" cy="512.1" r="6" fill="#31a354" stroke="white" stroke-width="2"/>
<text x="967.9" y="597" text-anchor="middle" font-family="Arial" font-size="12">28</text>
<circle cx="999.1" cy="517.9" r="6" fill="#31a354" stroke="white" stroke-width="2"/>
<text x="999.1" y="597" text-anchor="middle" font-family="Arial" font-size="12">29</text>
<text x="999.1" y="505.9" text-anchor="middle" font-family="Arial" font-size="11" fill="#333">1.223M</text>
<text x="999.1" y="539.9" text-anchor="middle" font-family="Arial" font-size="10" fill="#666">Move1</text>
<circle cx="1030.3" cy="521.6" r="6" fill="#31a354" stroke="white" stroke-width="2"/>
<text x="1030.3" y="597" text-anchor="middle" font-family="Arial" font-size="12">30</text>
<circle cx="1061.5" cy="524.9" r="6" fill="#31a354" stroke="white" stroke-width="2"/>
<text x="1061.5" y="597" text-anchor="middle" font-family="Arial" font-size="12">31</text>
<text x="1061.5" y="512.9" text-anchor="middle" font-family="Arial" font-size="11" fill="#333">1.220M</text>
<text x="1061.5" y="546.9" text-anchor="middle" font-family="Arial" font-size="10" fill="#666">Move1</text>
<circle cx="1092.6" cy="527.0" r="6" fill="#31a354" stroke="white" stroke-width="2"/>
<text x="1092.6" y="597" text-anchor="middle" font-family="Arial" font-size="12">32</text>
<circle cx="1123.8" cy="527.5" r="6" fill="#31a354" stroke="white" stroke-width="2"/>
<text x="1123.8" y="597" text-anchor="middle" font-family="Arial" font-size="12">33</text>
<text x="1123.8" y="515.5" text-anchor="middle" font-family="Arial" font-size="11" fill="#333">1.219M</text>
<text x="1123.8" y="549.5" text-anchor="middle" font-family="Arial" font-size="10" fill="#666">Move1</text>
<circle cx="1155.0" cy="527.5" r="6" fill="#31a354" stroke="white" stroke-width="2"/>
<text x="1155.0" y="597" text-anchor="middle" font-family="Arial" font-size="12">34</text>
<text x="1155.0" y="515.5" text-anchor="middle" font-family="Arial" font-size="11" fill="#333">1.219M</text>
<text x="1155.0" y="549.5" text-anchor="middle" font-family="Arial" font-size="10" fill="#666">Move1</text>
<circle cx="940" cy="95" r="6" fill="#756bb1"/>
<text x="954" y="99" font-family="Arial" font-size="12">Initial Greedy2</text>
<circle cx="940" cy="117" r="6" fill="#31a354"/>
<text x="954" y="121" font-family="Arial" font-size="12">Move1</text>
<circle cx="940" cy="139" r="6" fill="#74c476"/>
<text x="954" y="143" font-family="Arial" font-size="12">Move2</text>
<circle cx="940" cy="161" r="6" fill="#fd8d3c"/>
<text x="954" y="165" font-family="Arial" font-size="12">Move3</text>
<circle cx="940" cy="183" r="6" fill="#e6550d"/>
<text x="954" y="187" font-family="Arial" font-size="12">Move4</text>
<circle cx="940" cy="205" r="6" fill="#de2d26"/>
<text x="954" y="209" font-family="Arial" font-size="12">Move5</text>
</svg>